<svg version="1.1" id="Layer_1" xmlns="http://www.w3.org/2000/svg" xmlns:xlink="http://www.w3.org/1999/xlink" x="0px" y="0px"
	 width="100%" viewBox="0 0 96 96" enable-background="new 0 0 96 96" xml:space="preserve">
<path fill="#FFFFFF" opacity="1.000000" stroke="none" 
	d="
M47.002472,21.000000 
	C59.650688,21.000000 71.801720,21.131624 83.946533,20.914860 
	C87.319969,20.854649 89.806740,21.916683 89.776749,25.107985 
	C89.750404,27.912016 87.484512,29.130167 84.226860,29.091816 
	C67.420746,28.893972 50.609898,28.898638 33.803593,29.088484 
	C30.576982,29.124931 28.249426,27.978455 28.223524,25.138571 
	C28.194807,21.990122 30.605465,20.656387 34.027382,20.923506 
	C38.162693,21.246311 42.342430,21.000000 47.002472,21.000000 
z"/>
<path fill="#FFFFFF" opacity="1.000000" stroke="none" 
	d="
M30.032806,52.502449 
	C27.199944,47.305805 28.500242,45.014542 33.900043,45.007755 
	C50.726536,44.986610 67.554703,45.122257 84.378220,44.897663 
	C87.774445,44.852329 89.734344,46.336411 89.761185,49.052486 
	C89.784561,51.417320 88.037262,53.135372 84.777046,53.090881 
	C66.625557,52.843140 48.470131,52.883213 30.032806,52.502449 
z"/>
<path fill="#FFFFFF" opacity="1.000000" stroke="none" 
	d="
M84.589119,76.999977 
	C67.477737,77.000000 50.824310,76.897560 34.174187,77.086380 
	C30.842300,77.124161 28.231174,76.191002 28.224470,73.005974 
	C28.217751,69.813583 30.829004,68.877754 34.161442,68.914597 
	C50.978180,69.100471 67.799759,69.122749 84.615410,68.893250 
	C87.857910,68.848999 89.648743,70.439934 89.749107,72.793648 
	C89.845406,75.051987 88.413101,77.607941 84.589119,76.999977 
z"/>
<path fill="#FFFFFF" opacity="1.000000" stroke="none" 
	d="
M7.012422,27.588688 
	C6.999177,19.490131 7.801921,18.687042 14.353368,18.962103 
	C17.697088,19.102486 19.403782,20.717484 18.909725,23.886534 
	C18.539986,26.258181 17.825237,30.052418 16.422440,30.485224 
	C13.317214,31.443279 9.139968,32.536442 7.012422,27.588688 
z"/>
<path fill="#FFFFFF" opacity="1.000000" stroke="none" 
	d="
M18.999147,47.274681 
	C19.285814,51.862682 18.960297,55.386864 13.265342,55.060326 
	C10.331367,54.892097 7.338283,55.026123 7.076842,51.216610 
	C6.873673,48.256207 5.829488,44.119308 9.870284,43.281891 
	C13.074907,42.617760 17.760569,41.161995 18.999147,47.274681 
z"/>
<path fill="#FFFFFF" opacity="1.000000" stroke="none" 
	d="
M7.000852,71.277435 
	C8.711868,67.249084 13.890034,65.532204 17.028463,67.522240 
	C18.969023,68.752724 20.337395,75.528030 18.329737,76.865646 
	C16.139355,78.324982 12.898500,79.103874 10.272121,78.804741 
	C6.226697,78.343994 7.032517,74.602882 7.000852,71.277435 
z"/>
</svg>