<?xml version="1.0" encoding="UTF-8"?>
<svg xmlns="http://www.w3.org/2000/svg" viewBox="0 0 3000 3000">
  <defs>
    <style>
      .cls-1 {
        fill: #fff;
      }

      .cls-2 {
        fill: none;
        stroke: #fff;
        stroke-miterlimit: 10;
        stroke-width: 80px;
      }
    </style>
  </defs>
  <g id="Layer_7" data-name="Layer 7">
    <circle class="cls-2" cx="1500.5" cy="1500" r="1082.3594"/>
  </g>
  <g id="Layer_6" data-name="Layer 6">
    <path class="cls-1" d="m2238.5,1057c-224.6519-113.7037-422,132-461,159s-84,51-127,26-27-111-27-111c109-99,219.4889-189,219.4889-327.8309,0-300-342.9889-286.1691-342.9889-286.1691,0,0-342.9889-13.8309-342.9889,286.1691,0,138.8309,110.4889,228.8309,219.4889,327.8309,0,0,16,86-27,111s-88,1-127-26-236.3481-272.7037-461-159c-404.0026,204.4789-319.6516,1211.4587,364,1272-289.496-86.1333-568.823-577.2058-405-916,.8444-6.4399-36.4444,17.3906-18.3889-24.2717,10.3889-20.7283,23.0556-23.7283,23.0556,2.2717-5.5439,23.6145,53-28.3334,24-27.6667,0,0-37.6667-1.6666-7.6667-37,30-35.3333,31.3333-6,31.3333-6,0,0-4.6666,32.3334,19,.3334,23.6667-32-3-21-3-21,0,0-32-6,7-26.6666,39-20.6667,27,6,27,6,0,0-7,8.6666,68.3334,11.6666,75.3333,3-21.7902,113.61-45,154.3334-33.8596,59.4092-199.5954,655.3623,439.9999,868.6667-127.3448-118.1851-338.8214-289.7438-344.6666-671.3334,20-278,145-143.3334,141-108.3334s-81,491,288,716c-113-139-229-452-167-633,21-68,126-55,128,29-19,231,71.3336,543.6667,127.3334,593.6667-21.5386-136.2322-31.1819-468.5764,4-545.3334,0,0,20.9999-32.0001,37.1666-37.3334,16.1667,5.3333,37.1666,37.3334,37.1666,37.3334,35.1819,76.757,25.5386,409.1012,4,545.3334,55.9998-50,146.3334-362.6667,127.3334-593.6667,2-84,107-97,128-29,62,181-54,494-167,633,369-225,292-681,288-716s121-169.6666,141,108.3334c-5.8452,381.5896-217.3218,553.1483-344.6666,671.3334,639.5953-213.3044,473.8595-809.2576,439.9999-868.6667-23.2097-40.7234-120.3333-151.3334-45-154.3334,75.3335-3,68.3335-11.6666,68.3335-11.6666,0,0-12-26.6667,27-6,39,20.6666,7,26.6666,7,26.6666,0,0-26.6667-11-3,21,23.6665,32,19-.3334,19-.3334,0,0,1.3333-29.3333,31.3333,6,30,35.3334-7.6667,37-7.6667,37-29-.6666,29.5439,51.2812,24,27.6667,0-26,12.6667-23,23.0557-2.2717,18.0554,41.6624-19.2334,17.8318-18.3889,24.2717,163.823,338.7942-115.5039,829.8667-405,916,683.6516-60.5413,768.0024-1067.5211,364-1272Zm-997.8889-370.6667s133.7778-8,194.6667,181.3333c-163.1111-10.2222-194.6667-181.3333-194.6667-181.3333Zm518.7778,0s-31.5557,171.1111-194.6667,181.3333c60.8889-189.3333,194.6667-181.3333,194.6667-181.3333Z"/>
  </g>
</svg>